<?xml version="1.0" encoding="UTF-8"?>
<svg id="Layer_2" data-name="Layer 2" xmlns="http://www.w3.org/2000/svg" viewBox="0 0 1356.19 200.92">
  <defs>
    <style>
      .cls-1 {
        fill: #ee6c4d;
      }

      .cls-1, .cls-2, .cls-3, .cls-4 {
        stroke-width: 0px;
      }

      .cls-2 {
        fill: #98c1d9;
      }

      .cls-3 {
        fill: #293241;
      }

      .cls-4 {
        fill: #e0fbfc;
      }
    </style>
  </defs>
  <g id="Layer_1-2" data-name="Layer 1">
    <g>
      <circle class="cls-2" cx="152.82" cy="97.26" r="97.24"/>
      <path class="cls-3" d="M50.91,70.96c-9.47.62-41.89,3.96-46.85,10.88-.68.91.91,2.14,1.57,2.65,3.06,2.18,7,3.57,10.64,4.82,5.84,1.93,11.8,3.44,17.78,4.95,16.01,3.98,32.29,7.84,48.48,10.99,24.4,4.77,49.13,8.42,73.85,11.05,33.01,3.4,66.32,5.2,99.49,3.74,8.15-.55,16.43-1.43,24.39-3.2,3.78-.93,7.72-1.9,10.85-4.22,2.35-1.82,2.02-3.82.09-6.03-3.4-3.73-8.06-6.16-12.52-8.49-7.43-3.74-15.22-6.78-23.02-9.7,10.04,2.97,20.07,6.15,29.45,10.9,5.69,2.92,15.17,9.02,8.12,15.75-5.61,4.92-17.07,7.17-24.39,8.47-4.18.7-8.36,1.23-12.6,1.61-29.31,2.13-58.73,1.63-88.03-.15-14.57-.91-29.37-2.29-43.85-4.15-22.89-2.9-45.69-7.02-68.12-12.4-12.3-2.88-24.53-6.24-36.3-11.04-5.86-2.5-14.4-5.99-18.49-10.96-2.82-3.62-1.3-7.18,2.58-9.11,2.95-1.52,6.19-2.27,9.36-2.95,12.38-2.38,24.98-2.94,37.52-3.41h0Z"/>
      <g>
        <path class="cls-1" d="M237.58,17.85c.78-.11,1.56-.22,2.33-.33,2.52-.38,5.04-.8,7.46-1.65,3.17-1.11,5.17-3.31,6.18-6.48.67-2.1,1.07-4.26,1.41-6.43.15-.98.29-1.97.48-2.96.13.91.25,1.82.39,2.72.41,2.63.84,5.25,1.84,7.74,1.1,2.73,3.11,4.47,5.86,5.43,2.09.73,4.24,1.14,6.42,1.48,1.05.16,2.1.3,3.14.45.05,0,.1.03.15.1-.76.11-1.52.21-2.28.32-2.48.37-4.94.79-7.33,1.6-3.19,1.07-5.27,3.21-6.31,6.4-.68,2.08-1.09,4.21-1.42,6.36-.16,1.06-.31,2.13-.51,3.2-.1-.68-.19-1.37-.29-2.05-.38-2.57-.77-5.14-1.63-7.61-.57-1.64-1.39-3.14-2.72-4.31-1.25-1.1-2.72-1.75-4.28-2.23-2.15-.67-4.37-1.02-6.59-1.36-.77-.11-1.53-.22-2.3-.32,0-.02,0-.05,0-.07Z"/>
        <path class="cls-1" d="M258.43,35.72c1.1-.21,2.01-.37,2.91-.56,2.21-.44,3.56-1.75,3.98-3.98.18-.93.36-1.86.56-2.93.15.88.26,1.63.41,2.38.59,2.98,1.74,4.11,4.77,4.68.7.13,1.41.25,2.17.38-1.2.26-2.33.47-3.45.75-1.7.43-2.77,1.54-3.2,3.23-.28,1.11-.48,2.24-.73,3.41-.16-.88-.33-1.71-.46-2.54-.42-2.62-2.03-4-4.58-4.4-.74-.12-1.47-.25-2.39-.41Z"/>
        <path class="cls-1" d="M247.75,26.89c-5.16.91-5.46,1.2-6.44,6.27-.8-5.08-1.72-5.45-6.34-6.24,1.14-.28,2.2-.49,3.23-.8,1.14-.34,1.95-1.11,2.29-2.25.32-1.06.55-2.15.82-3.25.36,1.62.34,3.37,1.61,4.63,1.28,1.27,3.04,1.26,4.82,1.65Z"/>
      </g>
    </g>
    <g>
      <path class="cls-4" d="M408.24,25.14v39.06h-48.83v19.53h58.59l-58.59,29.3v9.77h48.83v39.06h-87.89V34.9l-9.77-9.77h97.66Z"/>
      <path class="cls-4" d="M456.97,93.5l-46.48-68.36h44.24l23.83,35.55,24.32-35.55h44.34l-45.9,68.65,45.9,68.07h-43.46l-25.49-35.35-23.14,35.35h-44.63l46.48-68.36Z"/>
      <path class="cls-4" d="M596.72,161.86c-18.88,0-34.99-6.67-48.34-20.02-13.35-13.35-20.02-29.46-20.02-48.34s6.67-34.99,20.02-48.34,29.46-20.02,48.34-20.02,34.99,6.67,48.34,20.02c13.35,13.35,20.02,29.46,20.02,48.34s-6.67,34.99-20.02,48.34-29.46,20.02-48.34,20.02ZM617.42,114.2c5.73-5.73,8.59-12.63,8.59-20.7s-2.87-14.97-8.59-20.7c-5.73-5.73-12.63-8.59-20.7-8.59s-14.98,2.87-20.7,8.59-8.59,12.63-8.59,20.7,2.86,14.98,8.59,20.7c5.73,5.73,12.63,8.59,20.7,8.59s14.97-2.86,20.7-8.59Z"/>
      <path class="cls-3" d="M731.58,25.14c19.53,0,33.36,6.51,41.5,19.53,3.71,5.92,5.57,11.85,5.57,17.77,0,7.1-2.67,14.19-8.01,21.29,13.02,6.51,19.53,16.28,19.53,29.3,0,32.55-16.28,48.83-48.83,48.83h-68.36V34.9l-9.77-9.77h68.36ZM731.58,73.97c6.51,0,9.77-2.44,9.77-7.32s-3.26-7.32-9.77-7.32h-19.53v14.65h19.53ZM741.35,122.79c6.51,0,9.77-3.25,9.77-9.77s-3.26-9.77-9.77-9.77h-29.3v19.53h29.3Z"/>
      <path class="cls-3" d="M885.39,25.14v39.06h-48.83v19.53h58.59l-58.59,29.3v9.77h48.83v39.06h-87.89V34.9l-9.77-9.77h97.66Z"/>
      <path class="cls-3" d="M1026.41,25.14v146.48l-87.89-68.36v58.59h-39.06V15.37l87.89,73.24v-53.71l-9.77-9.77h48.83Z"/>
      <path class="cls-3" d="M1102.38,161.86c-18.88,0-34.99-6.67-48.34-20.02-13.35-13.35-20.02-29.46-20.02-48.34s6.67-34.99,20.02-48.34,29.46-20.02,48.34-20.02h39.06v39.06h-39.06c-8.07,0-14.98,2.87-20.7,8.59s-8.59,12.63-8.59,20.7,2.86,14.98,8.59,20.7c5.73,5.73,12.63,8.59,20.7,8.59v-39.06h39.06v117.19l-39.06-39.06Z"/>
      <path class="cls-3" d="M1234.22,25.14l48.83,136.72h-39.06l-3.22-9.77h-46l14.84-39.06h18.07l-12.99-39.06-34.38,87.89-52.54,39.06,64.75-169.04-6.74-6.74h48.44Z"/>
      <path class="cls-3" d="M1317.13,25.14v97.66h39.06l-39.06,39.06h-39.06V34.9l-9.77-9.77h48.83Z"/>
    </g>
  </g>
</svg>